# xmcd
#
# Track frame offsets: 
#        150
#        14981
#        29568
#        43601
#        59647
#        76350
#        94251
#        111947
#        124280
#        140875
#        156218
#        169065
#        184013
#        204146
#        217815
#        234086
#
# Disc length: 3286 seconds
#
# Revision: 0
# Processed by: cddbd v1.5.2PL0 Copyright (c) Steve Scherf et al.
# Submitted via: ExactAudioCopy v0.95b4
#
DISCID=e40cd410
DTITLE=Asleep At The Wheel - Drivin'
DYEAR=1980
DGENRE=Country
TTITLE0=The Letter That Johnny Walker Read
TTITLE1=Bump Bounce Boogie
TTITLE2=Miles And Miles Of Texas
TTITLE3=The Trouble With Loving Today
TTITLE4=Choo Choo Ch' Boogie
TTITLE5=Am I High?
TTITLE6=Don't Forget The Trains
TTITLE7=Space Buggy
TTITLE8=Take Me Back To Tulsa
TTITLE9=Texas Me And You
TTITLE10=Route 66
TTITLE11=Let's Face Up
TTITLE12=One O'clock Jump
TTITLE13=Ain't Nobody Here But Us Chickens
TTITLE14=Ghost Dancer
TTITLE15=Shout Wa Hey
EXTD=
EXTT0=
EXTT1=
EXTT2=
EXTT3=
EXTT4=
EXTT5=
EXTT6=
EXTT7=
EXTT8=
EXTT9=
EXTT10=
EXTT11=
EXTT12=
EXTT13=
EXTT14=
EXTT15=
PLAYORDER=
